<?xml version="1.0" encoding="UTF-8"?><svg xmlns="http://www.w3.org/2000/svg" xmlns:xlink="http://www.w3.org/1999/xlink" contentScriptType="text/ecmascript" width="768" zoomAndPan="magnify" contentStyleType="text/css" viewBox="0 0 768 767.999994" height="767.999994" preserveAspectRatio="xMidYMid meet" version="1.0"><defs><clipPath id="clip-0"><path d="M 10.515625 16 L 757.515625 16 L 757.515625 753 L 10.515625 753 Z M 10.515625 16 " clip-rule="nonzero"/></clipPath></defs><g clip-path="url(#clip-0)"><path fill="rgb(100%, 100%, 100%)" d="M 384.015625 16.742188 C 177.75 16.742188 10.515625 183.976562 10.515625 390.242188 C 10.515625 565.257812 131.03125 711.699219 293.503906 752.226562 C 291.761719 747.183594 290.640625 741.332031 290.640625 734.078125 L 290.640625 670.242188 C 275.484375 670.242188 250.085938 670.242188 243.703125 670.242188 C 218.152344 670.242188 195.429688 659.253906 184.410156 638.835938 C 172.179688 616.144531 170.0625 581.441406 139.746094 560.214844 C 130.753906 553.148438 137.597656 545.089844 147.964844 546.175781 C 167.105469 551.59375 182.980469 564.726562 197.917969 584.210938 C 212.796875 603.726562 219.800781 608.148438 247.59375 608.148438 C 261.074219 608.148438 281.242188 607.367188 300.226562 604.382812 C 310.4375 578.453125 328.085938 554.582031 349.652344 543.3125 C 225.277344 530.519531 165.921875 468.644531 165.921875 384.636719 C 165.921875 348.472656 181.332031 313.488281 207.507812 284.011719 C 198.914062 254.753906 188.117188 195.085938 210.804688 172.367188 C 266.769531 172.367188 300.601562 208.65625 308.726562 218.460938 C 336.613281 208.90625 367.238281 203.492188 399.421875 203.492188 C 431.667969 203.492188 462.421875 208.90625 490.371094 218.523438 C 498.402344 208.78125 532.265625 172.367188 588.351562 172.367188 C 611.136719 195.117188 600.210938 255.035156 591.527344 284.230469 C 617.546875 313.640625 632.859375 348.535156 632.859375 384.636719 C 632.859375 468.582031 573.597656 530.429688 449.410156 543.28125 C 483.585938 561.117188 508.515625 611.230469 508.515625 648.984375 L 508.515625 734.078125 C 508.515625 737.316406 507.800781 739.652344 507.425781 742.421875 C 652.96875 691.40625 757.515625 553.210938 757.515625 390.242188 C 757.515625 183.976562 590.28125 16.742188 384.015625 16.742188 Z M 384.015625 16.742188 " fill-opacity="1" fill-rule="nonzero"/></g></svg>