<?xml version="1.0" encoding="UTF-8"?><svg xmlns="http://www.w3.org/2000/svg" xmlns:xlink="http://www.w3.org/1999/xlink" contentScriptType="text/ecmascript" width="768" zoomAndPan="magnify" contentStyleType="text/css" viewBox="0 0 768 767.999994" height="767.999994" preserveAspectRatio="xMidYMid meet" version="1.0"><defs><clipPath id="clip-0"><path d="M 10.429688 10.429688 L 757.429688 10.429688 L 757.429688 757.429688 L 10.429688 757.429688 Z M 10.429688 10.429688 " clip-rule="nonzero"/></clipPath></defs><g clip-path="url(#clip-0)"><path fill="rgb(12.939453%, 59.21936%, 74.119568%)" d="M 757.441406 383.945312 C 757.441406 390.058594 757.292969 396.167969 756.992188 402.273438 C 756.691406 408.378906 756.242188 414.472656 755.644531 420.554688 C 755.042969 426.636719 754.296875 432.703125 753.398438 438.75 C 752.503906 444.796875 751.457031 450.816406 750.265625 456.8125 C 749.074219 462.808594 747.734375 468.769531 746.25 474.699219 C 744.761719 480.628906 743.132812 486.515625 741.359375 492.367188 C 739.585938 498.214844 737.667969 504.019531 735.609375 509.773438 C 733.550781 515.527344 731.351562 521.230469 729.011719 526.878906 C 726.671875 532.523438 724.195312 538.113281 721.582031 543.636719 C 718.96875 549.164062 716.222656 554.621094 713.339844 560.011719 C 710.457031 565.402344 707.445312 570.71875 704.304688 575.964844 C 701.160156 581.207031 697.890625 586.367188 694.496094 591.453125 C 691.097656 596.535156 687.582031 601.53125 683.941406 606.441406 C 680.296875 611.347656 676.539062 616.167969 672.660156 620.890625 C 668.78125 625.617188 664.792969 630.242188 660.6875 634.773438 C 656.582031 639.300781 652.367188 643.726562 648.046875 648.050781 C 643.722656 652.371094 639.296875 656.585938 634.769531 660.691406 C 630.238281 664.796875 625.613281 668.789062 620.886719 672.664062 C 616.160156 676.542969 611.34375 680.304688 606.433594 683.945312 C 601.523438 687.585938 596.527344 691.105469 591.445312 694.5 C 586.363281 697.894531 581.203125 701.164062 575.957031 704.308594 C 570.714844 707.449219 565.398438 710.460938 560.007812 713.34375 C 554.617188 716.226562 549.160156 718.972656 543.632812 721.585938 C 538.105469 724.199219 532.519531 726.675781 526.875 729.015625 C 521.226562 731.355469 515.523438 733.554688 509.769531 735.613281 C 504.015625 737.671875 498.210938 739.589844 492.363281 741.363281 C 486.511719 743.136719 480.625 744.769531 474.695312 746.253906 C 468.765625 747.738281 462.800781 749.078125 456.808594 750.269531 C 450.8125 751.460938 444.789062 752.507812 438.746094 753.402344 C 432.699219 754.300781 426.632812 755.050781 420.550781 755.648438 C 414.464844 756.246094 408.371094 756.695312 402.265625 756.996094 C 396.160156 757.296875 390.054688 757.445312 383.941406 757.445312 C 377.828125 757.445312 371.71875 757.296875 365.613281 756.996094 C 359.507812 756.695312 353.414062 756.246094 347.332031 755.648438 C 341.246094 755.050781 335.183594 754.300781 329.136719 753.402344 C 323.089844 752.507812 317.070312 751.460938 311.074219 750.269531 C 305.078125 749.078125 299.117188 747.738281 293.1875 746.253906 C 287.257812 744.769531 281.367188 743.136719 275.519531 741.363281 C 269.667969 739.589844 263.867188 737.671875 258.113281 735.613281 C 252.355469 733.554688 246.65625 731.355469 241.007812 729.015625 C 235.359375 726.675781 229.773438 724.199219 224.246094 721.585938 C 218.722656 718.972656 213.265625 716.226562 207.871094 713.34375 C 202.480469 710.460938 197.164062 707.449219 191.921875 704.308594 C 186.679688 701.164062 181.515625 697.894531 176.433594 694.5 C 171.351562 691.105469 166.355469 687.585938 161.445312 683.945312 C 156.535156 680.304688 151.71875 676.542969 146.992188 672.664062 C 142.269531 668.789062 137.640625 664.796875 133.113281 660.691406 C 128.582031 656.585938 124.15625 652.371094 119.835938 648.050781 C 115.511719 643.726562 111.300781 639.300781 107.195312 634.773438 C 103.089844 630.242188 99.097656 625.617188 95.21875 620.890625 C 91.34375 616.167969 87.582031 611.347656 83.941406 606.441406 C 80.300781 601.53125 76.78125 596.535156 73.386719 591.453125 C 69.988281 586.367188 66.71875 581.207031 63.578125 575.964844 C 60.433594 570.71875 57.421875 565.402344 54.542969 560.011719 C 51.660156 554.621094 48.914062 549.164062 46.300781 543.636719 C 43.683594 538.113281 41.210938 532.523438 38.871094 526.878906 C 36.53125 521.230469 34.332031 515.527344 32.273438 509.773438 C 30.214844 504.019531 28.296875 498.214844 26.523438 492.367188 C 24.746094 486.515625 23.117188 480.628906 21.632812 474.699219 C 20.148438 468.769531 18.808594 462.808594 17.617188 456.8125 C 16.421875 450.816406 15.378906 444.796875 14.480469 438.75 C 13.585938 432.703125 12.835938 426.636719 12.238281 420.554688 C 11.636719 414.472656 11.1875 408.378906 10.890625 402.273438 C 10.589844 396.167969 10.4375 390.058594 10.4375 383.945312 C 10.4375 377.832031 10.589844 371.722656 10.890625 365.617188 C 11.1875 359.511719 11.636719 353.417969 12.238281 347.335938 C 12.835938 341.253906 13.585938 335.1875 14.480469 329.140625 C 15.378906 323.09375 16.421875 317.074219 17.617188 311.078125 C 18.808594 305.082031 20.148438 299.121094 21.632812 293.191406 C 23.117188 287.261719 24.746094 281.371094 26.523438 275.523438 C 28.296875 269.671875 30.214844 263.871094 32.273438 258.117188 C 34.332031 252.359375 36.53125 246.660156 38.871094 241.011719 C 41.210938 235.363281 43.683594 229.777344 46.300781 224.253906 C 48.914062 218.726562 51.660156 213.269531 54.542969 207.878906 C 57.421875 202.488281 60.433594 197.167969 63.578125 191.925781 C 66.71875 186.683594 69.988281 181.519531 73.386719 176.4375 C 76.78125 171.355469 80.300781 166.359375 83.941406 161.449219 C 87.582031 156.539062 91.34375 151.722656 95.21875 147 C 99.097656 142.273438 103.089844 137.644531 107.195312 133.117188 C 111.300781 128.585938 115.511719 124.160156 119.835938 119.839844 C 124.15625 115.515625 128.582031 111.304688 133.113281 107.199219 C 137.640625 103.09375 142.269531 99.101562 146.992188 95.222656 C 151.71875 91.347656 156.535156 87.585938 161.445312 83.945312 C 166.355469 80.304688 171.351562 76.785156 176.433594 73.390625 C 181.515625 69.992188 186.679688 66.722656 191.921875 63.582031 C 197.164062 60.441406 202.480469 57.425781 207.871094 54.546875 C 213.265625 51.664062 218.722656 48.917969 224.246094 46.304688 C 229.773438 43.691406 235.359375 41.214844 241.007812 38.875 C 246.65625 36.535156 252.355469 34.335938 258.113281 32.277344 C 263.867188 30.21875 269.667969 28.300781 275.519531 26.527344 C 281.367188 24.75 287.257812 23.121094 293.1875 21.636719 C 299.117188 20.152344 305.078125 18.8125 311.074219 17.621094 C 317.070312 16.425781 323.089844 15.382812 329.136719 14.484375 C 335.183594 13.589844 341.246094 12.839844 347.332031 12.242188 C 353.414062 11.644531 359.507812 11.191406 365.613281 10.894531 C 371.71875 10.59375 377.828125 10.445312 383.941406 10.445312 C 390.054688 10.445312 396.160156 10.59375 402.265625 10.894531 C 408.371094 11.191406 414.464844 11.644531 420.550781 12.242188 C 426.632812 12.839844 432.699219 13.589844 438.746094 14.484375 C 444.789062 15.382812 450.8125 16.425781 456.808594 17.621094 C 462.800781 18.8125 468.765625 20.152344 474.695312 21.636719 C 480.625 23.121094 486.511719 24.75 492.363281 26.527344 C 498.210938 28.300781 504.015625 30.21875 509.769531 32.277344 C 515.523438 34.335938 521.226562 36.535156 526.875 38.875 C 532.519531 41.214844 538.105469 43.691406 543.632812 46.304688 C 549.160156 48.917969 554.617188 51.664062 560.007812 54.546875 C 565.398438 57.425781 570.714844 60.441406 575.957031 63.582031 C 581.203125 66.722656 586.363281 69.992188 591.445312 73.390625 C 596.527344 76.785156 601.523438 80.304688 606.433594 83.945312 C 611.34375 87.585938 616.160156 91.347656 620.886719 95.222656 C 625.613281 99.101562 630.238281 103.09375 634.769531 107.199219 C 639.296875 111.304688 643.722656 115.515625 648.046875 119.839844 C 652.367188 124.160156 656.582031 128.585938 660.6875 133.117188 C 664.792969 137.644531 668.78125 142.273438 672.660156 147 C 676.539062 151.722656 680.296875 156.539062 683.941406 161.449219 C 687.582031 166.359375 691.097656 171.355469 694.496094 176.4375 C 697.890625 181.519531 701.160156 186.683594 704.304688 191.925781 C 707.445312 197.167969 710.457031 202.488281 713.339844 207.878906 C 716.21875 213.269531 718.96875 218.726562 721.582031 224.253906 C 724.195312 229.777344 726.671875 235.363281 729.011719 241.011719 C 731.351562 246.660156 733.550781 252.359375 735.609375 258.117188 C 737.667969 263.871094 739.585938 269.671875 741.359375 275.523438 C 743.132812 281.371094 744.761719 287.261719 746.25 293.191406 C 747.734375 299.121094 749.074219 305.082031 750.265625 311.078125 C 751.457031 317.074219 752.503906 323.09375 753.398438 329.140625 C 754.296875 335.1875 755.042969 341.253906 755.644531 347.335938 C 756.242188 353.417969 756.691406 359.511719 756.992188 365.617188 C 757.292969 371.722656 757.441406 377.832031 757.441406 383.945312 Z M 757.441406 383.945312 " fill-opacity="1" fill-rule="nonzero"/></g><path fill="rgb(100%, 100%, 100%)" d="M 289.886719 204.4375 C 289.886719 206.066406 289.804688 207.691406 289.648438 209.3125 C 289.488281 210.933594 289.25 212.539062 288.929688 214.136719 C 288.613281 215.734375 288.21875 217.3125 287.746094 218.867188 C 287.273438 220.425781 286.726562 221.957031 286.101562 223.460938 C 285.480469 224.964844 284.785156 226.4375 284.015625 227.871094 C 283.25 229.308594 282.414062 230.703125 281.507812 232.054688 C 280.605469 233.410156 279.636719 234.714844 278.601562 235.972656 C 277.570312 237.234375 276.476562 238.4375 275.328125 239.589844 C 274.175781 240.738281 272.96875 241.832031 271.710938 242.863281 C 270.453125 243.898438 269.148438 244.867188 267.792969 245.769531 C 266.441406 246.675781 265.046875 247.511719 263.609375 248.277344 C 262.171875 249.046875 260.703125 249.742188 259.199219 250.363281 C 257.695312 250.988281 256.164062 251.535156 254.605469 252.007812 C 253.046875 252.480469 251.472656 252.875 249.875 253.191406 C 248.277344 253.511719 246.667969 253.75 245.050781 253.910156 C 243.429688 254.070312 241.804688 254.148438 240.175781 254.148438 C 238.550781 254.148438 236.925781 254.070312 235.304688 253.910156 C 233.683594 253.75 232.074219 253.511719 230.480469 253.191406 C 228.882812 252.875 227.304688 252.480469 225.746094 252.007812 C 224.1875 251.535156 222.660156 250.988281 221.152344 250.363281 C 219.648438 249.742188 218.179688 249.046875 216.746094 248.277344 C 215.308594 247.511719 213.914062 246.675781 212.558594 245.769531 C 211.207031 244.867188 209.902344 243.898438 208.640625 242.863281 C 207.382812 241.832031 206.179688 240.738281 205.027344 239.589844 C 203.875 238.4375 202.785156 237.234375 201.75 235.972656 C 200.71875 234.714844 199.75 233.410156 198.84375 232.054688 C 197.941406 230.703125 197.105469 229.308594 196.335938 227.871094 C 195.570312 226.4375 194.875 224.964844 194.253906 223.460938 C 193.628906 221.957031 193.082031 220.425781 192.609375 218.867188 C 192.136719 217.3125 191.742188 215.734375 191.421875 214.136719 C 191.105469 212.539062 190.867188 210.933594 190.707031 209.3125 C 190.546875 207.691406 190.46875 206.066406 190.46875 204.4375 C 190.46875 202.8125 190.546875 201.1875 190.707031 199.566406 C 190.867188 197.945312 191.105469 196.339844 191.421875 194.742188 C 191.742188 193.144531 192.136719 191.566406 192.609375 190.007812 C 193.082031 188.453125 193.628906 186.921875 194.253906 185.417969 C 194.875 183.914062 195.570312 182.441406 196.335938 181.007812 C 197.105469 179.570312 197.941406 178.175781 198.84375 176.824219 C 199.75 175.46875 200.71875 174.164062 201.75 172.902344 C 202.785156 171.644531 203.875 170.441406 205.027344 169.289062 C 206.179688 168.136719 207.382812 167.046875 208.640625 166.015625 C 209.902344 164.980469 211.207031 164.011719 212.558594 163.109375 C 213.914062 162.203125 215.308594 161.367188 216.746094 160.601562 C 218.179688 159.832031 219.648438 159.136719 221.152344 158.515625 C 222.660156 157.890625 224.1875 157.34375 225.746094 156.871094 C 227.304688 156.398438 228.882812 156.003906 230.480469 155.683594 C 232.074219 155.367188 233.683594 155.128906 235.304688 154.96875 C 236.925781 154.808594 238.550781 154.730469 240.175781 154.730469 C 241.804688 154.730469 243.429688 154.808594 245.050781 154.96875 C 246.667969 155.128906 248.277344 155.367188 249.875 155.683594 C 251.472656 156.003906 253.046875 156.398438 254.605469 156.871094 C 256.164062 157.34375 257.695312 157.890625 259.199219 158.515625 C 260.703125 159.136719 262.171875 159.832031 263.609375 160.601562 C 265.046875 161.367188 266.441406 162.203125 267.792969 163.109375 C 269.148438 164.011719 270.453125 164.980469 271.710938 166.015625 C 272.96875 167.046875 274.175781 168.136719 275.328125 169.289062 C 276.476562 170.441406 277.570312 171.644531 278.601562 172.902344 C 279.636719 174.164062 280.605469 175.46875 281.507812 176.824219 C 282.414062 178.175781 283.25 179.570312 284.015625 181.007812 C 284.785156 182.441406 285.480469 183.914062 286.101562 185.417969 C 286.726562 186.921875 287.273438 188.453125 287.746094 190.007812 C 288.21875 191.566406 288.613281 193.144531 288.929688 194.742188 C 289.25 196.339844 289.488281 197.945312 289.648438 199.566406 C 289.804688 201.1875 289.886719 202.8125 289.886719 204.4375 Z M 289.886719 204.4375 " fill-opacity="1" fill-rule="nonzero"/><path fill="rgb(100%, 100%, 100%)" d="M 197.324219 290.800781 L 282.722656 290.800781 L 282.722656 565.523438 L 197.324219 565.523438 Z M 197.324219 290.800781 " fill-opacity="1" fill-rule="nonzero"/><path fill="rgb(100%, 100%, 100%)" d="M 336.433594 290.800781 L 417.714844 290.800781 L 417.714844 565.523438 L 336.433594 565.523438 Z M 336.433594 290.800781 " fill-opacity="1" fill-rule="nonzero"/><path fill="rgb(100%, 100%, 100%)" d="M 339.949219 437.066406 L 421.230469 437.066406 L 421.230469 565.523438 L 339.949219 565.523438 Z M 339.949219 437.066406 " fill-opacity="1" fill-rule="nonzero"/><path fill="rgb(100%, 100%, 100%)" d="M 421.230469 437.066406 C 421.230469 437.066406 419.960938 401.4375 429.359375 382.910156 C 429.359375 382.910156 438.757812 360.09375 468.289062 359.957031 C 468.289062 359.957031 502.933594 353.90625 512.871094 388.28125 C 512.871094 388.28125 516.628906 407.347656 516.628906 415.40625 C 516.628906 423.464844 516.898438 565.527344 516.898438 565.527344 L 602.027344 565.527344 L 602.027344 408.15625 C 602.027344 408.15625 608.207031 319.269531 554.855469 294.917969 C 554.855469 294.917969 467.125 255.535156 419.507812 327.863281 C 419.507812 327.863281 409.125 335.019531 407.6875 314.972656 C 406.253906 294.917969 394.082031 345.765625 393.726562 346.839844 C 393.367188 347.917969 407.6875 448.171875 407.6875 448.171875 Z M 421.230469 437.066406 " fill-opacity="1" fill-rule="nonzero"/></svg>